<svg xmlns="http://www.w3.org/2000/svg" viewBox="0 0 1440 900" role="img" aria-label="Product preview of Sidebar AI Chat">
  <defs>
    <linearGradient id="bg" x1="0" y1="0" x2="0" y2="1">
      <stop offset="0%" stop-color="#ffffff"/>
      <stop offset="100%" stop-color="#f6f7fb"/>
    </linearGradient>
    <filter id="shadow-lg" x="-20%" y="-20%" width="140%" height="140%">
      <feDropShadow dx="0" dy="24" stdDeviation="24" flood-color="#000" flood-opacity="0.12"/>
      <feDropShadow dx="0" dy="12" stdDeviation="12" flood-color="#000" flood-opacity="0.08"/>
    </filter>
  </defs>

  <!-- Outer mock browser window -->
  <g filter="url(#shadow-lg)">
    <rect x="80" y="60" width="1280" height="780" rx="28" fill="url(#bg)"/>
    <!-- Top bar -->
    <rect x="80" y="60" width="1280" height="56" rx="28" fill="#ffffff"/>
    <circle cx="120" cy="88" r="6" fill="#ff5f56"/>
    <circle cx="140" cy="88" r="6" fill="#ffbd2e"/>
    <circle cx="160" cy="88" r="6" fill="#27c93f"/>
    <rect x="560" y="76" width="400" height="24" rx="12" fill="#f1f5f9"/>

    <!-- Page content area (left) -->
    <rect x="100" y="136" width="890" height="684" rx="18" fill="#ffffff"/>
    <rect x="136" y="172" width="420" height="28" rx="8" fill="#e5e7eb"/>
    <rect x="136" y="214" width="540" height="16" rx="6" fill="#eef2f7"/>
    <rect x="136" y="238" width="500" height="16" rx="6" fill="#eef2f7"/>
    <rect x="136" y="262" width="420" height="16" rx="6" fill="#eef2f7"/>

    <!-- Content block -->
    <rect x="136" y="312" width="580" height="320" rx="16" fill="#f6f7fb"/>
    <rect x="736" y="312" width="234" height="150" rx="16" fill="#f6f7fb"/>
    <rect x="736" y="476" width="234" height="156" rx="16" fill="#f6f7fb"/>

    <!-- Side panel (product focus) -->
    <rect x="1010" y="136" width="330" height="684" rx="18" fill="#0b0c0e"/>

    <!-- Chat header in panel -->
    <rect x="1026" y="152" width="298" height="40" rx="10" fill="#171a1f"/>
    <rect x="1042" y="160" width="140" height="16" rx="7" fill="#e5e7eb" opacity="0.12"/>

    <!-- Chat bubbles -->
    <rect x="1038" y="212" width="220" height="18" rx="9" fill="#e5e7eb" opacity="0.18"/>
    <rect x="1038" y="236" width="180" height="18" rx="9" fill="#e5e7eb" opacity="0.18"/>
    <rect x="1038" y="260" width="240" height="18" rx="9" fill="#e5e7eb" opacity="0.18"/>

    <rect x="1076" y="300" width="210" height="18" rx="9" fill="#94a3b8" opacity="0.35"/>
    <rect x="1176" y="324" width="110" height="18" rx="9" fill="#94a3b8" opacity="0.35"/>

    <rect x="1038" y="364" width="250" height="18" rx="9" fill="#e5e7eb" opacity="0.18"/>
    <rect x="1038" y="388" width="140" height="18" rx="9" fill="#e5e7eb" opacity="0.18"/>

    <rect x="1138" y="428" width="190" height="18" rx="9" fill="#94a3b8" opacity="0.35"/>
    <rect x="1088" y="452" width="240" height="18" rx="9" fill="#94a3b8" opacity="0.35"/>

    <rect x="1038" y="512" width="220" height="18" rx="9" fill="#e5e7eb" opacity="0.18"/>
    <rect x="1038" y="536" width="200" height="18" rx="9" fill="#e5e7eb" opacity="0.18"/>

    <!-- Input row -->
    <rect x="1030" y="760" width="300" height="40" rx="12" fill="#171a1f"/>
    <rect x="1046" y="770" width="200" height="18" rx="9" fill="#e5e7eb" opacity="0.12"/>
    <rect x="1260" y="768" width="56" height="24" rx="8" fill="#0ea5e9" opacity="0.9"/>
  </g>
</svg>

